<svg width="24" height="24" viewBox="0 0 24 24" fill="none" xmlns="http://www.w3.org/2000/svg">
<path d="M24 11.9773C24.0122 18.589 18.6203 23.9954 12.0087 24C9.15314 24.002 6.53017 23.0066 4.46893 21.343C3.93295 20.9104 3.89288 20.1072 4.37995 19.6201L4.92512 19.0749C5.34169 18.6583 6.00672 18.6128 6.46824 18.9789C7.98686 20.184 9.90875 20.9033 12 20.9033C16.9212 20.9033 20.9032 16.9205 20.9032 12C20.9032 7.0788 16.9204 3.09678 12 3.09678C9.63802 3.09678 7.49278 4.01464 5.89993 5.51285L8.35577 7.96869C8.84351 8.45644 8.49807 9.29034 7.80836 9.29034H0.774193C0.346596 9.29034 0 8.94374 0 8.51614V1.48195C0 0.792243 0.833902 0.446807 1.32164 0.934502L3.71061 3.32347C5.86495 1.26465 8.78477 0 12 0C18.6198 0 23.9877 5.36033 24 11.9773Z" fill="black"/>
<path d="M9.48407 16.1161V11.2761C9.48407 11.1628 9.48407 11.0428 9.48407 10.9161C9.49074 10.7828 9.4974 10.6461 9.50407 10.5061C9.2774 10.7261 9.01407 10.9195 8.71407 11.0861C8.41407 11.2461 8.1074 11.3628 7.79407 11.4361L7.58407 10.7061C7.70407 10.6928 7.85407 10.6495 8.03407 10.5761C8.22074 10.4961 8.41407 10.3995 8.61407 10.2861C8.82074 10.1661 9.01074 10.0395 9.18407 9.90614C9.3574 9.77281 9.49074 9.64281 9.58407 9.51614H10.2841V16.1161H9.48407ZM14.1706 16.2161C13.5839 16.2161 13.1106 16.0828 12.7506 15.8161C12.3972 15.5495 12.1239 15.1795 11.9306 14.7061L12.7106 14.2961C12.8172 14.6428 12.9806 14.9261 13.2006 15.1461C13.4272 15.3595 13.7572 15.4661 14.1906 15.4661C14.6439 15.4661 15.0006 15.3428 15.2606 15.0961C15.5272 14.8428 15.6606 14.4961 15.6606 14.0561C15.6606 13.5895 15.5372 13.2361 15.2906 12.9961C15.0506 12.7561 14.7072 12.6361 14.2606 12.6361C13.9406 12.6361 13.6539 12.6861 13.4006 12.7861C13.1472 12.8861 12.9439 13.0495 12.7906 13.2761L12.0906 13.1461L12.4806 9.51614H16.1906V10.2661H13.1606L12.9006 12.3461L12.8806 12.4361H12.9006C13.0606 12.2695 13.2639 12.1361 13.5106 12.0361C13.7639 11.9361 14.0639 11.8861 14.4106 11.8861C14.8306 11.8861 15.1939 11.9761 15.5006 12.1561C15.8139 12.3295 16.0572 12.5761 16.2306 12.8961C16.4039 13.2161 16.4906 13.5895 16.4906 14.0161C16.4906 14.4695 16.3906 14.8628 16.1906 15.1961C15.9972 15.5228 15.7272 15.7761 15.3806 15.9561C15.0339 16.1295 14.6306 16.2161 14.1706 16.2161Z" fill="black"/>
</svg>
