<svg width="24" height="24" viewBox="0 0 24 24" fill="none" xmlns="http://www.w3.org/2000/svg">
<path d="M2.28882e-05 11.9773C-0.012219 18.589 5.3797 23.9954 11.9913 24C14.8469 24.002 17.4698 23.0066 19.5311 21.343C20.0671 20.9104 20.1071 20.1072 19.6201 19.6201L19.0749 19.0749C18.6583 18.6583 17.9933 18.6128 17.5318 18.9789C16.0131 20.184 14.0913 20.9033 12 20.9033C7.07881 20.9033 3.09679 16.9205 3.09679 12C3.09679 7.0788 7.07958 3.09678 12 3.09678C14.362 3.09678 16.5072 4.01464 18.1001 5.51285L15.6442 7.96869C15.1565 8.45644 15.5019 9.29034 16.1916 9.29034H23.2258C23.6534 9.29034 24 8.94374 24 8.51614V1.48195C24 0.792243 23.1661 0.446807 22.6784 0.934502L20.2894 3.32347C18.1351 1.26465 15.2152 0 12 0C5.38018 0 0.0122648 5.36033 2.28882e-05 11.9773Z" fill="black"/>
<path d="M8.39957 16.4V11.56C8.39957 11.4467 8.39957 11.3267 8.39957 11.2C8.40623 11.0667 8.4129 10.93 8.41957 10.79C8.1929 11.01 7.92958 11.2033 7.62958 11.37C7.32958 11.53 7.02291 11.6467 6.70958 11.72L6.49957 10.99C6.61957 10.9767 6.76957 10.9333 6.94957 10.86C7.13624 10.78 7.32957 10.6833 7.52957 10.57C7.73624 10.45 7.92625 10.3233 8.09958 10.19C8.27291 10.0567 8.40624 9.92667 8.49957 9.8H9.19957V16.4H8.39957ZM13.0861 16.5C12.4994 16.5 12.0261 16.3667 11.6661 16.1C11.3127 15.8333 11.0394 15.4633 10.8461 14.99L11.6261 14.58C11.7327 14.9267 11.8961 15.21 12.1161 15.43C12.3427 15.6433 12.6727 15.75 13.1061 15.75C13.5594 15.75 13.9161 15.6267 14.1761 15.38C14.4427 15.1267 14.576 14.78 14.576 14.34C14.576 13.8733 14.4527 13.52 14.2061 13.28C13.9661 13.04 13.6227 12.92 13.1761 12.92C12.8561 12.92 12.5694 12.97 12.3161 13.07C12.0627 13.17 11.8594 13.3333 11.7061 13.56L11.0061 13.43L11.3961 9.8H15.1061V10.55H12.076L11.8161 12.63L11.7961 12.72H11.8161C11.9761 12.5533 12.1794 12.42 12.4261 12.32C12.6794 12.22 12.9794 12.17 13.3261 12.17C13.7461 12.17 14.1094 12.26 14.4161 12.44C14.7294 12.6133 14.9727 12.86 15.1461 13.18C15.3194 13.5 15.4061 13.8733 15.4061 14.3C15.4061 14.7533 15.3061 15.1467 15.1061 15.48C14.9127 15.8067 14.6427 16.06 14.2961 16.24C13.9494 16.4133 13.5461 16.5 13.0861 16.5Z" fill="black"/>
</svg>
