<svg width="27" height="36" viewBox="0 0 27 36" fill="none" xmlns="http://www.w3.org/2000/svg">
<path d="M7.50006 36H2.50006C0.370593 36 0 34.2723 0 32.1429V3.85715C0 1.72769 0.370593 7.62939e-06 2.50006 7.62939e-06H7.50006C9.62952 7.62939e-06 10.0001 1.72769 10.0001 3.85715V32.1429C10.0001 34.2723 9.62952 36 7.50006 36Z" fill="black"/>
<path d="M24.5001 36H19.5001C17.3706 36 17 34.2723 17 32.1429V3.85714C17 1.72768 17.3706 0 19.5001 0H24.5001C26.6295 0 27.0001 1.72768 27.0001 3.85714V32.1429C27.0001 34.2723 26.6295 36 24.5001 36Z" fill="black"/>
</svg>
