<svg width="24" height="14" viewBox="0 0 24 14" fill="none" xmlns="http://www.w3.org/2000/svg">
<path d="M10.3271 1.5918H6.21387V13H4.53516V1.5918H0.430664V0.203125H10.3271V1.5918Z" fill="black"/>
<path d="M12.978 6.96191L15.0874 3.49023H16.9858L13.8745 8.19238L17.0825 13H15.2017L13.0044 9.44043L10.8071 13H8.91748L12.1255 8.19238L9.01416 3.49023H10.895L12.978 6.96191Z" fill="#BC0B05"/>
<path d="M21.2309 1.1875V3.49023H23.0063V4.74707H21.2309V10.6445C21.2309 11.0254 21.31 11.3125 21.4682 11.5059C21.6264 11.6934 21.8959 11.7871 22.2768 11.7871C22.4643 11.7871 22.7221 11.752 23.0502 11.6816V13C22.6225 13.1172 22.2065 13.1758 21.8022 13.1758C21.0756 13.1758 20.5278 12.9561 20.1586 12.5166C19.7895 12.0771 19.6049 11.4531 19.6049 10.6445V4.74707H17.8735V3.49023H19.6049V1.1875H21.2309Z" fill="black"/>
</svg>
