<svg width="11" height="20" viewBox="0 0 11 20" fill="none" xmlns="http://www.w3.org/2000/svg">
<path d="M8.62132 0.424532C9.16548 -0.141511 10.0477 -0.141511 10.5919 0.424532C11.136 0.990575 11.136 1.90831 10.5919 2.47436L2.37868 11.0179C1.83453 11.584 0.952275 11.584 0.408119 11.0179C-0.136036 10.4519 -0.136036 9.53414 0.408119 8.96809L8.62132 0.424532Z" fill="black"/>
<path d="M0.408117 11.0319C-0.136039 10.4659 -0.136039 9.54813 0.408117 8.98208C0.952272 8.41604 1.83452 8.41604 2.37868 8.98208L10.5919 17.5256C11.136 18.0917 11.136 19.0094 10.5919 19.5755C10.0477 20.1415 9.16548 20.1415 8.62132 19.5755L0.408117 11.0319Z" fill="black"/>
</svg>
