<svg width="16" height="4" viewBox="0 0 16 4" fill="none" xmlns="http://www.w3.org/2000/svg">
<path d="M2 0C0.895161 0 0 0.895161 0 2C0 3.10484 0.895161 4 2 4C3.10484 4 4 3.10484 4 2C4 0.895161 3.10484 0 2 0Z" fill="#868485"/>
<path d="M8 0C6.89516 0 6 0.895161 6 2C6 3.10484 6.89516 4 8 4C9.10484 4 10 3.10484 10 2C10 0.895161 9.10484 0 8 0Z" fill="#868485"/>
<path d="M14 0C12.8952 0 12 0.895161 12 2C12 3.10484 12.8952 4 14 4C15.1048 4 16 3.10484 16 2C16 0.895161 15.1048 0 14 0Z" fill="#868485"/>
</svg>
