<svg width="24" height="24" viewBox="0 0 24 24" fill="none" xmlns="http://www.w3.org/2000/svg">
<path d="M10.8965 6.38867H6.7832V17.7969H5.10449V6.38867H1V5H10.8965V6.38867Z" fill="black"/>
<path d="M13.0605 11.7588L15.1699 8.28711H17.0684L13.957 12.9893L17.165 17.7969H15.2842L13.0869 14.2373L10.8896 17.7969H9L12.208 12.9893L9.09668 8.28711H10.9775L13.0605 11.7588Z" fill="#BC0B05"/>
<path d="M21.3574 6V8.30273H23.1328V9.55957H21.3574V15.457C21.3574 15.8379 21.4365 16.125 21.5947 16.3184C21.7529 16.5059 22.0225 16.5996 22.4033 16.5996C22.5908 16.5996 22.8486 16.5645 23.1768 16.4941V17.8125C22.749 17.9297 22.333 17.9883 21.9287 17.9883C21.2021 17.9883 20.6543 17.7686 20.2852 17.3291C19.916 16.8896 19.7314 16.2656 19.7314 15.457V9.55957H18V8.30273H19.7314V6H21.3574Z" fill="black"/>
</svg>
