<svg width="30" height="13" viewBox="0 0 30 13" fill="none" xmlns="http://www.w3.org/2000/svg">
<path d="M3.43652 0.1875V2.49023H5.21191V3.74707H3.43652V9.64453C3.43652 10.0254 3.51562 10.3125 3.67383 10.5059C3.83203 10.6934 4.10156 10.7871 4.48242 10.7871C4.66992 10.7871 4.92773 10.752 5.25586 10.6816V12C4.82812 12.1172 4.41211 12.1758 4.00781 12.1758C3.28125 12.1758 2.7334 11.9561 2.36426 11.5166C1.99512 11.0771 1.81055 10.4531 1.81055 9.64453V3.74707H0.0791016V2.49023H1.81055V0.1875H3.43652ZM19.8545 5.96191L21.9639 2.49023H23.8623L20.751 7.19238L23.959 12H22.0781L19.8809 8.44043L17.6836 12H15.7939L19.002 7.19238L15.8906 2.49023H17.7715L19.8545 5.96191ZM27.7998 0.1875V2.49023H29.5752V3.74707H27.7998V9.64453C27.7998 10.0254 27.8789 10.3125 28.0371 10.5059C28.1953 10.6934 28.4648 10.7871 28.8457 10.7871C29.0332 10.7871 29.291 10.752 29.6191 10.6816V12C29.1914 12.1172 28.7754 12.1758 28.3711 12.1758C27.6445 12.1758 27.0967 11.9561 26.7275 11.5166C26.3584 11.0771 26.1738 10.4531 26.1738 9.64453V3.74707H24.4424V2.49023H26.1738V0.1875H27.7998Z" fill="black"/>
<path d="M11.0654 12.1758C9.77637 12.1758 8.72754 11.7539 7.91895 10.9102C7.11035 10.0605 6.70605 8.92676 6.70605 7.50879V7.20996C6.70605 6.2666 6.88477 5.42578 7.24219 4.6875C7.60547 3.94336 8.10938 3.36328 8.75391 2.94727C9.4043 2.52539 10.1074 2.31445 10.8633 2.31445C12.0996 2.31445 13.0605 2.72168 13.7461 3.53613C14.4316 4.35059 14.7744 5.5166 14.7744 7.03418V7.71094H8.33203C8.35547 8.64844 8.62793 9.40723 9.14941 9.9873C9.67676 10.5615 10.3447 10.8486 11.1533 10.8486C11.7275 10.8486 12.2139 10.7314 12.6123 10.4971C13.0107 10.2627 13.3594 9.95215 13.6582 9.56543L14.6514 10.3389C13.8545 11.5635 12.6592 12.1758 11.0654 12.1758ZM10.8633 3.65039C10.207 3.65039 9.65625 3.89062 9.21094 4.37109C8.76562 4.8457 8.49023 5.51367 8.38477 6.375H13.1484V6.25195C13.1016 5.42578 12.8789 4.78711 12.4805 4.33594C12.082 3.87891 11.543 3.65039 10.8633 3.65039Z" fill="#FF0000"/>
</svg>
